PathFileType	4	(X/Y/Z)	/tmp/tmpiso3uksv//results/MarkerData/Run_5.trc
DataRate	CameraRate	NumFrames	NumMarkers	Units	OrigDataRate	OrigDataStartFrame	OrigNumFrames
119.99	119.99	9	42	m	119.99	0	647
Frame#	Time	C7			CLAV			LACR			LASI			LCAL			LFAradius			LFAsuperior			LFAulna			LLEL			LMEL			LMT5			LPSI			LTB1			LTB2			LTB3			LTH1			LTH2			LTH3			LTOE			LUA1			LUA2			LUA3			RACR			RASI			RCAL			RFAradius			RFAsuperior			RFAulna			RLEL			RMEL			RMT5			RPSI			RTB1			RTB2			RTB3			RTH1			RTH2			RTH3			RTOE			RUA1			RUA2			RUA3		
		X1	Y1	Z1	X2	Y2	Z2	X3	Y3	Z3	X4	Y4	Z4	X5	Y5	Z5	X6	Y6	Z6	X7	Y7	Z7	X8	Y8	Z8	X9	Y9	Z9	X10	Y10	Z10	X11	Y11	Z11	X12	Y12	Z12	X13	Y13	Z13	X14	Y14	Z14	X15	Y15	Z15	X16	Y16	Z16	X17	Y17	Z17	X18	Y18	Z18	X19	Y19	Z19	X20	Y20	Z20	X21	Y21	Z21	X22	Y22	Z22	X23	Y23	Z23	X24	Y24	Z24	X25	Y25	Z25	X26	Y26	Z26	X27	Y27	Z27	X28	Y28	Z28	X29	Y29	Z29	X30	Y30	Z30	X31	Y31	Z31	X32	Y32	Z32	X33	Y33	Z33	X34	Y34	Z34	X35	Y35	Z35	X36	Y36	Z36	X37	Y37	Z37	X38	Y38	Z38	X39	Y39	Z39	X40	Y40	Z40	X41	Y41	Z41	X42	Y42	Z42

1	0.008333	0.73738	1.5037	-0.415961	0.853655	1.41956	-0.350467	0.81066	1.45264	-0.578337	0.761991	0.981958	-0.531095	0.158287	0.256187	-0.462599	0.96499	1.28749	-0.55241	0.887092	1.22546	-0.697183	1.00206	1.23455	-0.569686	0.83021	1.19173	-0.73137	0.792449	1.12967	-0.67552	0.238588	0.0780055	-0.518129	0.605888	1.03641	-0.432861	0.451635	0.408349	-0.484774	0.346982	0.357555	-0.533735	0.317813	0.270683	-0.466758	0.660872	0.85483	-0.565675	0.658323	0.734527	-0.558048	0.528314	0.645381	-0.539421	0.293731	0.0882922	-0.443302	0.804534	1.37726	-0.637677	0.751397	1.30008	-0.644682	0.816983	1.29163	-0.682161	0.729933	1.48143	-0.229162	0.77142	1.01378	-0.287467	0.619841	0.418152	-0.344518	0.667812	1.11134	-0.0737974	0.569948	1.25186	-0.0564681	0.604195	1.08986	-0.0604763	0.51975	1.31831	-0.0750638	0.486674	1.29773	-0.153386	0.72236	0.269563	-0.241079	0.609065	1.04081	-0.344504	0.954077	0.52008	-0.314918	0.875044	0.508031	-0.263862	0.798653	0.423079	-0.330093	0.810096	0.86831	-0.231792	0.930931	0.820507	-0.254033	0.947063	0.686756	-0.24723	0.761622	0.250121	-0.328586	0.659613	1.42434	-0.156089	0.645168	1.35695	-0.137499	0.545126	1.38962	-0.138781
2	0.016667	0.738634	1.50655	-0.414603	0.854025	1.42274	-0.347043	0.814947	1.45715	-0.575142	0.765295	0.984532	-0.529848	0.147067	0.284771	-0.4631	0.963534	1.2894	-0.545079	0.891113	1.23011	-0.693728	0.999538	1.23607	-0.560822	0.835214	1.19749	-0.730327	0.792844	1.13578	-0.67693	0.198923	0.0933059	-0.514913	0.608167	1.04123	-0.433704	0.43915	0.417668	-0.486835	0.33263	0.370689	-0.535371	0.299527	0.285282	-0.468245	0.660456	0.861255	-0.566313	0.654644	0.740188	-0.559918	0.524159	0.653926	-0.54118	0.258027	0.101009	-0.442959	0.809777	1.38313	-0.635666	0.755428	1.30749	-0.646345	0.82278	1.29749	-0.680215	0.728506	1.48506	-0.22882	0.771826	1.01818	-0.288505	0.65317	0.376076	-0.350627	0.660731	1.11992	-0.0708819	0.56378	1.26148	-0.0567217	0.596828	1.09916	-0.0578084	0.514607	1.32793	-0.0765296	0.481936	1.30782	-0.15535	0.772592	0.244148	-0.243782	0.610247	1.04525	-0.345615	0.97099	0.521212	-0.315752	0.894079	0.499601	-0.26526	0.830007	0.405685	-0.332966	0.811359	0.875128	-0.232192	0.930025	0.826037	-0.251981	0.94723	0.69206	-0.249926	0.816449	0.230606	-0.330179	0.657236	1.43047	-0.1561	0.64161	1.36302	-0.137514	0.542516	1.3983	-0.13969
3	0.025	0.740099	1.50911	-0.413364	0.854702	1.42538	-0.343799	0.819301	1.4611	-0.572178	0.76823	0.987533	-0.52768	0.134949	0.31379	-0.46439	0.961642	1.29023	-0.538273	0.894317	1.23397	-0.690694	0.996677	1.23645	-0.5532	0.839196	1.20263	-0.729529	0.79237	1.14153	-0.678569	0.161991	0.11235	-0.510132	0.610089	1.04567	-0.434826	0.427921	0.426121	-0.487907	0.319579	0.383738	-0.536405	0.281444	0.301217	-0.468586	0.661333	0.866473	-0.566771	0.65342	0.744562	-0.56101	0.522241	0.66019	-0.543109	0.223236	0.117751	-0.439817	0.814723	1.38839	-0.633771	0.759119	1.31467	-0.648089	0.827986	1.3028	-0.678668	0.727337	1.48797	-0.228496	0.772053	1.02183	-0.289048	0.687568	0.334827	-0.356077	0.654541	1.12782	-0.068007	0.558153	1.2702	-0.0568284	0.590347	1.10773	-0.0550903	0.510001	1.33658	-0.0779239	0.47772	1.31702	-0.157117	0.822646	0.221131	-0.246744	0.611285	1.04954	-0.346673	0.98587	0.520562	-0.316256	0.911741	0.489772	-0.266269	0.860179	0.388294	-0.335679	0.811043	0.879739	-0.232262	0.928641	0.830083	-0.25062	0.946708	0.695152	-0.252121	0.869664	0.213805	-0.332496	0.655247	1.43583	-0.156008	0.638479	1.36839	-0.137402	0.540255	1.40611	-0.140415
4	0.033333	0.741837	1.5113	-0.412231	0.855719	1.4274	-0.340799	0.823747	1.46433	-0.569508	0.770673	0.99101	-0.524599	0.121936	0.343403	-0.466818	0.959225	1.2896	-0.532185	0.896437	1.23679	-0.68823	0.99344	1.2353	-0.547152	0.841787	1.20697	-0.72902	0.790726	1.14689	-0.680432	0.128746	0.135805	-0.503516	0.611582	1.04964	-0.43618	0.41833	0.433646	-0.487793	0.308241	0.396777	-0.536738	0.26388	0.318937	-0.467643	0.663733	0.870101	-0.566968	0.65514	0.747281	-0.560935	0.523074	0.663618	-0.545166	0.189988	0.139699	-0.433349	0.819309	1.39288	-0.63203	0.762441	1.32148	-0.649823	0.83239	1.30739	-0.677558	0.726548	1.49002	-0.228165	0.771984	1.02461	-0.289028	0.723196	0.295011	-0.360644	0.649543	1.13484	-0.0651463	0.553266	1.27773	-0.0567569	0.585066	1.11532	-0.0523114	0.506118	1.34393	-0.0792424	0.474238	1.325	-0.158644	0.87222	0.200977	-0.250059	0.612157	1.05357	-0.347663	0.998125	0.517563	-0.316324	0.927482	0.478098	-0.266949	0.888785	0.370896	-0.338113	0.808949	0.881643	-0.231943	0.926813	0.832128	-0.250208	0.945179	0.695381	-0.25373	0.920525	0.200197	-0.335722	0.653772	1.44022	-0.155794	0.635928	1.3729	-0.137136	0.538461	1.41276	-0.14093
5	0.041667	0.743896	1.51311	-0.411128	0.857006	1.42875	-0.338096	0.828292	1.46672	-0.567157	0.772541	0.994825	-0.521109	0.108734	0.373756	-0.470696	0.95629	1.28718	-0.527015	0.897228	1.23833	-0.686435	0.989825	1.23222	-0.542815	0.842632	1.21041	-0.728777	0.787636	1.15187	-0.682395	0.0998983	0.163589	-0.495244	0.612655	1.05306	-0.437554	0.410686	0.440451	-0.486533	0.299006	0.409976	-0.536413	0.247524	0.338738	-0.465682	0.66754	0.871895	-0.566843	0.659713	0.748162	-0.55932	0.526795	0.664038	-0.547197	0.159217	0.167483	-0.423853	0.823515	1.39647	-0.630452	0.765411	1.32769	-0.651295	0.835768	1.31111	-0.676788	0.72628	1.49116	-0.227755	0.77144	1.02658	-0.288502	0.759805	0.257727	-0.364192	0.646026	1.14075	-0.0622156	0.549346	1.28388	-0.0564996	0.581295	1.12167	-0.0494724	0.50314	1.34974	-0.0804886	0.471727	1.33141	-0.159917	0.920529	0.183674	-0.253799	0.612853	1.05714	-0.34857	1.00737	0.511858	-0.315943	0.940785	0.46437	-0.267587	0.91549	0.35358	-0.340099	0.805373	0.880812	-0.231251	0.924749	0.831654	-0.250897	0.942184	0.692312	-0.254831	0.968074	0.189622	-0.339858	0.652912	1.44356	-0.155453	0.634105	1.37642	-0.136711	0.537252	1.41807	-0.141254
6	0.05	0.746274	1.51455	-0.409947	0.858399	1.42948	-0.335693	0.832882	1.46833	-0.565053	0.773902	0.99859	-0.518137	0.097006	0.404866	-0.4759	0.952991	1.28284	-0.522864	0.896591	1.23854	-0.685227	0.985813	1.22707	-0.539928	0.841626	1.21301	-0.728693	0.783021	1.15654	-0.684218	0.0751917	0.194792	-0.486196	0.613452	1.05592	-0.438687	0.405054	0.446924	-0.484538	0.292065	0.42348	-0.535652	0.233286	0.360354	-0.463434	0.672186	0.872046	-0.566443	0.666176	0.747477	-0.556291	0.532881	0.661997	-0.548988	0.131688	0.200304	-0.4129	0.827343	1.39918	-0.62898	0.767983	1.3331	-0.652176	0.837993	1.31393	-0.676139	0.726593	1.49151	-0.227169	0.770279	1.02797	-0.287655	0.796457	0.224221	-0.366888	0.644103	1.14549	-0.0590905	0.546571	1.28861	-0.056081	0.579158	1.12667	-0.0465854	0.501142	1.35397	-0.0816428	0.470319	1.336	-0.160955	0.966257	0.168687	-0.257914	0.613348	1.05997	-0.349396	1.01373	0.503797	-0.315382	0.951627	0.449106	-0.268561	0.940128	0.336731	-0.3416	0.801163	0.878001	-0.23031	0.922634	0.828418	-0.252446	0.937298	0.686133	-0.255724	1.01152	0.181225	-0.344541	0.652676	1.44593	-0.154993	0.633058	1.37894	-0.136139	0.536689	1.422	-0.141465
7	0.058333	0.748919	1.51558	-0.408616	0.859735	1.42958	-0.333547	0.837384	1.46922	-0.563064	0.774954	1.00182	-0.516427	0.0888528	0.43665	-0.481771	0.949534	1.27655	-0.519737	0.894505	1.23751	-0.6844	0.981252	1.2198	-0.538061	0.838863	1.21489	-0.728638	0.77693	1.16094	-0.685655	0.0538336	0.228629	-0.477642	0.614177	1.05814	-0.439468	0.401407	0.453245	-0.482378	0.287548	0.437299	-0.534702	0.222036	0.383087	-0.461666	0.677008	0.871019	-0.565926	0.673285	0.745774	-0.552616	0.540473	0.658385	-0.550368	0.107886	0.236454	-0.402625	0.83071	1.40108	-0.627524	0.769885	1.33761	-0.652228	0.838976	1.3159	-0.675424	0.727438	1.49118	-0.226319	0.768499	1.02894	-0.286651	0.831647	0.195484	-0.369112	0.643779	1.14901	-0.0556639	0.545086	1.29194	-0.0555187	0.578648	1.1303	-0.0436441	0.500126	1.35666	-0.0826196	0.470011	1.3386	-0.161738	1.00769	0.155686	-0.262185	0.613592	1.06168	-0.350167	1.01754	0.494292	-0.315173	0.960421	0.433457	-0.270068	0.96239	0.321078	-0.342841	0.797224	0.874206	-0.229241	0.92033	0.822378	-0.254271	0.930282	0.67742	-0.256768	1.05016	0.174286	-0.349189	0.653004	1.44736	-0.154392	0.632763	1.38046	-0.135418	0.536782	1.4245	-0.141622
8	0.066667	0.751713	1.51609	-0.407111	0.860939	1.42891	-0.331601	0.841604	1.46941	-0.561078	0.775941	1.00411	-0.516033	0.0859376	0.468992	-0.4873	0.946071	1.26829	-0.517587	0.890991	1.23531	-0.683774	0.97587	1.21041	-0.536902	0.834519	1.21609	-0.728529	0.769465	1.16497	-0.686541	0.0353896	0.264876	-0.470878	0.614987	1.05955	-0.440012	0.399768	0.459232	-0.48055	0.28561	0.451328	-0.533731	0.214391	0.406172	-0.460777	0.681599	0.869258	-0.565466	0.680098	0.743594	-0.549408	0.548686	0.65402	-0.551233	0.0882249	0.274119	-0.394823	0.833388	1.40216	-0.626043	0.77066	1.34125	-0.651421	0.83862	1.31702	-0.674591	0.728695	1.49009	-0.225153	0.766305	1.02944	-0.285541	0.863569	0.171833	-0.371182	0.645034	1.15123	-0.0519079	0.54499	1.29381	-0.0547832	0.579723	1.13247	-0.0405982	0.500069	1.35773	-0.0832601	0.470687	1.33907	-0.16215	1.04309	0.144929	-0.26623	0.613543	1.06194	-0.350947	1.01904	0.484401	-0.315867	0.967615	0.418739	-0.27201	0.981557	0.307439	-0.344257	0.794092	0.870014	-0.228099	0.917367	0.813653	-0.255738	0.921297	0.666887	-0.258183	1.08318	0.16876	-0.353272	0.65381	1.44768	-0.15359	0.63316	1.38082	-0.134501	0.537488	1.42542	-0.141706
9	0.075	0.754456	1.51593	-0.405429	0.862023	1.42734	-0.32981	0.845307	1.46886	-0.559075	0.777037	1.00525	-0.516345	0.0888872	0.50176	-0.491459	0.942651	1.25803	-0.516317	0.886131	1.23199	-0.683328	0.969392	1.19894	-0.536357	0.828776	1.21658	-0.728324	0.760764	1.16853	-0.686824	0.0203449	0.303457	-0.466938	0.615909	1.05991	-0.440545	0.400202	0.464529	-0.479356	0.286396	0.465479	-0.532842	0.210642	0.42908	-0.460706	0.685875	0.867011	-0.56514	0.686138	0.741285	-0.547559	0.556754	0.649459	-0.551546	0.0732451	0.311819	-0.390478	0.835061	1.4024	-0.624593	0.769912	1.34408	-0.649934	0.836846	1.31735	-0.673705	0.730225	1.48806	-0.223655	0.764077	1.02937	-0.284285	0.890468	0.152734	-0.373144	0.64782	1.15202	-0.0479106	0.546274	1.29407	-0.0537869	0.582335	1.13307	-0.0373653	0.500927	1.35702	-0.0833638	0.472144	1.33729	-0.161987	1.07127	0.136893	-0.269587	0.613182	1.06055	-0.351814	1.01835	0.474947	-0.317696	0.973232	0.405894	-0.274108	0.99664	0.296295	-0.346171	0.791815	0.865373	-0.226881	0.913277	0.802645	-0.256426	0.911066	0.65535	-0.25994	1.10969	0.165016	-0.356462	0.654995	1.4466	-0.152501	0.634178	1.37978	-0.13331	0.538695	1.42452	-0.141609
